<svg xmlns="http://www.w3.org/2000/svg" width="20" height="20" viewBox="0 0 20 20"><g transform="translate(0)"><g transform="translate(0 0)"><path d="M220.895,216.925a9.762,9.762,0,0,0-1.147-.472,5.353,5.353,0,0,0,2.077-4.251,5.183,5.183,0,1,0-10.364,0,5.354,5.354,0,0,0,2.082,4.254,9.832,9.832,0,0,0-3.193,1.8,10.24,10.24,0,0,0-3.411,5.771,2.417,2.417,0,0,0,.471,1.989,2.279,2.279,0,0,0,1.792.874h9.385a.781.781,0,0,0,0-1.562H209.2a.768.768,0,0,1-.61-.3.832.832,0,0,1-.161-.684,8.478,8.478,0,0,1,8.01-6.835q.1,0,.2,0c.068,0,.136,0,.2,0a8.133,8.133,0,0,1,3.393.826.754.754,0,0,0,1.015-.37A.79.79,0,0,0,220.895,216.925Zm-4.065-.978-.186,0-.184,0a3.66,3.66,0,1,1,.37,0Z" transform="translate(-206.89 -206.89)" fill="#374750"/></g><g transform="translate(11.981 11.981)"><path d="M275.836,271.826h-2.321v-2.321a.844.844,0,1,0-1.688,0v2.321h-2.321a.844.844,0,1,0,0,1.688h2.321v2.321a.844.844,0,1,0,1.688,0v-2.321h2.321a.844.844,0,1,0,0-1.688Z" transform="translate(-268.661 -268.661)" fill="#00c0ff"/></g></g></svg>