<svg xmlns="http://www.w3.org/2000/svg" width="21.384" height="12.126" viewBox="0 0 21.384 12.126"><g transform="translate(0.7 -3.665)"><path d="M3.377,0H0" transform="translate(0.049 6.901)" fill="none" stroke="#00c0ff" stroke-linecap="round" stroke-width="1.5"/><g transform="translate(4.766 -60.185)"><path d="M13.8,64H1.971A1.971,1.971,0,0,0,0,65.971v7.884a1.971,1.971,0,0,0,1.971,1.971H13.8a1.971,1.971,0,0,0,1.971-1.971V65.971A1.971,1.971,0,0,0,13.8,64Zm-3.244,5.259,4.172-3.575a.95.95,0,0,1,.058.287v7.884a.933.933,0,0,1-.039.193ZM13.8,64.985a.913.913,0,0,1,.185.038l-6.1,5.227-6.1-5.227a.913.913,0,0,1,.185-.038ZM1.024,74.047a.922.922,0,0,1-.039-.192V65.971a.95.95,0,0,1,.058-.287l4.17,3.574Zm.946.793a.948.948,0,0,1-.281-.057L5.963,69.9l1.6,1.371a.49.49,0,0,0,.641,0L9.8,69.9l4.273,4.883a.943.943,0,0,1-.281.057Z" fill="#374750" stroke="#374750" stroke-width="0.3"/></g><path d="M3.377,0H1" transform="translate(0.05 9.901)" fill="none" stroke="#00c0ff" stroke-linecap="round" stroke-width="1.5"/><path d="M3.377,0H2" transform="translate(0.05 12.901)" fill="none" stroke="#00c0ff" stroke-linecap="round" stroke-width="1.5"/></g></svg>