<?xml version="1.0" encoding="UTF-8"?>
<svg xmlns="http://www.w3.org/2000/svg" xmlns:xlink="http://www.w3.org/1999/xlink" width="20pt" height="20pt" viewBox="0 0 20 20" version="1.1">
<g id="surface1">
<path style=" stroke:none;fill-rule:nonzero;fill:#F0F0F0;fill-opacity:1;" d="M 9.128906 0 C 6.257813 0 4.144531 0.992188 2.777344 2.542969 C 1.410156 4.09375 0.792969 6.175781 0.792969 8.332031 C 0.792969 10.082031 1.339844 11.710938 2.257813 13.046875 C 3.085938 14.253906 3.570313 15.675781 3.570313 17.136719 L 3.570313 19.839844 L 4.363281 19.839844 L 4.363281 17.136719 C 4.363281 15.515625 3.824219 13.945313 2.925781 12.625 L 2.902344 12.585938 C 2.074219 11.378906 1.585938 9.917969 1.585938 8.332031 C 1.585938 6.324219 2.160156 4.4375 3.371094 3.0625 C 4.394531 1.902344 5.882813 1.082031 7.9375 0.855469 L 7.9375 6.980469 C 6.777344 7.457031 5.953125 8.59375 5.953125 9.921875 C 5.953125 11.667969 7.378906 13.09375 9.128906 13.09375 C 9.878906 13.09375 10.578125 12.828125 11.125 12.386719 L 13.195313 13.828125 C 13.132813 13.96875 13.09375 14.121094 13.09375 14.285156 C 13.09375 14.9375 13.632813 15.476563 14.285156 15.476563 C 14.9375 15.476563 15.476563 14.9375 15.476563 14.285156 C 15.476563 13.632813 14.9375 13.09375 14.285156 13.09375 C 14.085938 13.09375 13.894531 13.152344 13.726563 13.242188 L 11.667969 11.816406 C 12.0625 11.289063 12.300781 10.628906 12.300781 9.921875 C 12.300781 8.59375 11.476563 7.457031 10.316406 6.980469 L 10.316406 0.855469 C 12.351563 1.054688 13.757813 1.765625 14.730469 2.777344 C 15.886719 3.980469 16.453125 5.636719 16.667969 7.429688 L 16.679688 7.515625 L 16.714844 7.578125 L 18.589844 10.789063 L 18.578125 10.789063 C 18.675781 10.96875 18.625 11.140625 18.453125 11.234375 L 18.453125 11.246094 L 16.667969 12.140625 L 16.667969 14.519531 C 16.667969 16.007813 15.441406 17.164063 13.964844 17.027344 L 13.949219 17.027344 L 12.722656 16.941406 L 12.300781 16.914063 L 12.300781 19.839844 L 13.09375 19.839844 L 13.09375 17.757813 L 13.890625 17.820313 C 13.894531 17.820313 13.898438 17.820313 13.902344 17.820313 C 15.828125 17.992188 17.460938 16.445313 17.460938 14.519531 L 17.460938 12.625 L 18.824219 11.941406 L 18.835938 11.941406 L 18.847656 11.929688 C 19.390625 11.628906 19.570313 10.941406 19.269531 10.402344 L 19.269531 10.390625 L 17.433594 7.21875 C 17.199219 5.359375 16.589844 3.574219 15.300781 2.230469 C 13.988281 0.863281 11.984375 0 9.128906 0 Z M 9.128906 0.792969 C 9.265625 0.792969 9.390625 0.800781 9.523438 0.804688 L 9.523438 6.769531 C 9.390625 6.753906 9.261719 6.746094 9.128906 6.746094 C 8.992188 6.746094 8.863281 6.753906 8.730469 6.769531 L 8.730469 0.804688 C 8.859375 0.800781 8.992188 0.792969 9.128906 0.792969 Z M 9.128906 7.539063 C 10.445313 7.539063 11.507813 8.601563 11.507813 9.921875 C 11.507813 11.238281 10.445313 12.300781 9.128906 12.300781 C 7.808594 12.300781 6.746094 11.238281 6.746094 9.921875 C 6.746094 8.601563 7.808594 7.539063 9.128906 7.539063 Z M 9.128906 8.332031 C 8.253906 8.332031 7.539063 9.046875 7.539063 9.921875 C 7.539063 10.792969 8.253906 11.507813 9.128906 11.507813 C 10 11.507813 10.714844 10.792969 10.714844 9.921875 C 10.714844 9.046875 10 8.332031 9.128906 8.332031 Z M 9.128906 9.128906 C 9.570313 9.128906 9.921875 9.476563 9.921875 9.921875 C 9.921875 10.363281 9.570313 10.714844 9.128906 10.714844 C 8.683594 10.714844 8.332031 10.363281 8.332031 9.921875 C 8.332031 9.476563 8.683594 9.128906 9.128906 9.128906 Z M 14.285156 13.890625 C 14.507813 13.890625 14.683594 14.0625 14.683594 14.285156 C 14.683594 14.507813 14.507813 14.683594 14.285156 14.683594 C 14.0625 14.683594 13.890625 14.507813 13.890625 14.285156 C 13.890625 14.0625 14.0625 13.890625 14.285156 13.890625 Z "/>
</g>
</svg>
