<?xml version="1.0" standalone="no"?>
<!DOCTYPE svg PUBLIC "-//W3C//DTD SVG 20010904//EN"
 "http://www.w3.org/TR/2001/REC-SVG-20010904/DTD/svg10.dtd">
<svg version="1.0" xmlns="http://www.w3.org/2000/svg"
 width="316.000000pt" height="315.000000pt" viewBox="0 0 316.000000 315.000000"
 preserveAspectRatio="xMidYMid meet">
<metadata>
Created by potrace 1.16, written by Peter Selinger 2001-2019
</metadata>
<g transform="translate(0.000000,315.000000) scale(0.100000,-0.100000)"
fill="#000000" stroke="none">
<path d="M2013 3136 c-251 -48 -433 -162 -552 -346 -92 -142 -105 -277 -46
-455 24 -72 36 -128 38 -172 l2 -67 -32 -7 c-46 -9 -80 -34 -99 -71 -45 -86
39 -305 131 -344 30 -12 33 -18 39 -71 10 -84 53 -273 88 -383 38 -120 85
-211 148 -285 28 -33 52 -66 55 -75 2 -8 -6 -51 -18 -95 -17 -61 -28 -82 -45
-90 -16 -7 -22 -18 -22 -41 0 -27 31 -69 193 -261 105 -125 219 -261 251 -301
85 -103 89 -102 212 45 412 491 414 493 414 522 0 22 -6 30 -24 35 -27 7 -37
31 -57 133 l-11 62 43 50 c24 28 61 79 82 113 59 97 130 339 167 566 8 50 16
72 26 72 27 0 91 70 118 129 68 153 48 248 -61 286 l-38 13 -1 239 c-1 227 -2
241 -25 303 -37 97 -91 173 -209 291 -117 118 -176 153 -315 190 -103 27 -345
35 -452 15z m-257 -807 c109 -50 247 -97 388 -134 249 -65 370 -79 426 -50 22
11 47 13 103 9 71 -6 75 -6 82 15 5 15 13 21 28 19 18 -3 23 -15 38 -98 32
-186 66 -270 109 -270 30 0 38 21 45 118 8 102 19 118 64 100 67 -25 80 -66
51 -160 -26 -84 -74 -149 -117 -160 -36 -9 -35 -6 -58 -148 -32 -190 -101
-420 -153 -509 -14 -24 -49 -73 -79 -108 -30 -38 -53 -75 -53 -89 0 -51 42
-199 62 -221 l21 -23 -20 -22 c-11 -13 -118 -140 -238 -283 -120 -143 -219
-261 -220 -263 -2 -2 -72 79 -156 180 -84 101 -193 230 -242 287 -73 86 -86
107 -75 115 8 6 19 20 25 31 20 38 52 180 46 207 -3 15 -26 51 -51 80 -63 73
-97 130 -126 207 -70 185 -128 464 -115 552 4 30 15 113 24 184 22 168 97 465
118 465 2 0 35 -14 73 -31z m-302 -311 c3 -13 6 -84 6 -158 l0 -135 -21 25
c-36 44 -73 133 -77 187 -4 46 -2 54 23 77 34 32 61 33 69 4z"/>
<path d="M185 2278 c-57 -16 -137 -99 -154 -161 -20 -69 -9 -149 27 -207 l30
-48 -24 -11 c-13 -6 -33 -25 -44 -43 -19 -31 -20 -51 -20 -283 0 -230 2 -253
20 -282 39 -64 39 -64 465 -61 l385 3 32 32 c25 26 34 44 38 82 l5 50 159 -95
c88 -52 167 -93 175 -92 14 3 16 44 19 355 2 339 2 353 -17 362 -16 9 -47 -6
-178 -83 l-158 -94 -5 48 c-4 36 -13 57 -35 80 -16 16 -35 30 -42 30 -10 0 -6
10 10 33 78 105 56 274 -45 347 -55 40 -132 56 -195 41 -63 -16 -108 -45 -137
-87 l-23 -34 -32 40 c-18 22 -49 49 -71 60 -48 24 -132 33 -185 18z m150 -61
c73 -36 123 -135 106 -209 -12 -53 -47 -104 -87 -129 -21 -13 -34 -28 -32 -38
3 -14 23 -16 151 -19 171 -3 179 2 101 71 -54 48 -74 88 -74 152 0 118 116
213 225 184 86 -23 144 -98 145 -187 0 -61 -21 -102 -75 -149 -54 -46 -56 -73
-6 -73 40 0 76 -18 90 -44 6 -11 12 -48 13 -81 2 -47 7 -60 20 -63 9 -2 89 40
178 92 l160 95 0 -294 0 -294 -160 95 c-89 52 -169 94 -178 92 -13 -3 -18 -16
-20 -63 -3 -70 -15 -99 -49 -114 -16 -7 -140 -11 -379 -11 l-356 0 -29 29 -29
29 0 237 0 237 29 29 c23 23 39 29 70 29 55 0 55 26 0 70 -128 103 -90 292 69
340 30 9 86 3 117 -13z"/>
<path d="M177 1713 c-4 -3 -7 -89 -7 -190 l0 -183 295 0 295 0 0 190 0 190
-288 0 c-159 0 -292 -3 -295 -7z m573 -183 l0 -180 -285 0 -285 0 0 173 c0 96
3 177 7 180 3 4 132 7 285 7 l278 0 0 -180z"/>
<path d="M1054 892 c-11 -7 -25 -127 -17 -149 3 -8 22 -13 44 -13 70 0 107 59
78 123 -17 37 -76 59 -105 39z"/>
<path d="M260 799 c-45 -19 -60 -40 -59 -83 0 -23 4 -50 8 -61 8 -19 9 -18 22
8 9 20 17 26 28 21 9 -4 39 -10 68 -12 40 -3 54 -8 58 -23 10 -32 23 -21 30
24 11 75 -21 122 -90 131 -22 3 -51 1 -65 -5z"/>
</g>
</svg>
