<svg xmlns="http://www.w3.org/2000/svg" width="16.926" height="20.546" viewBox="0 0 16.926 20.546"><g transform="translate(-16.5 -14.227)"><path d="M30.755,22.008V19.975a5.547,5.547,0,0,0-5.791-5.248,5.547,5.547,0,0,0-5.792,5.248v2.032A2.618,2.618,0,0,0,17,24.584v7.073a2.62,2.62,0,0,0,2.617,2.617H30.309a2.62,2.62,0,0,0,2.617-2.617V24.583A2.618,2.618,0,0,0,30.755,22.008ZM19.9,19.975a4.825,4.825,0,0,1,5.068-4.525,4.825,4.825,0,0,1,5.068,4.525v1.991H19.9ZM32.2,31.656a1.9,1.9,0,0,1-1.893,1.893H19.617a1.9,1.9,0,0,1-1.893-1.893V24.583a1.9,1.9,0,0,1,1.893-1.893H30.309A1.9,1.9,0,0,1,32.2,24.583Z" transform="translate(0 0)" fill="#374750" stroke="#374750" stroke-width="1"/><path d="M26.63,27.455A1.449,1.449,0,0,0,25.182,28.9v2.172a1.448,1.448,0,1,0,2.9,0V28.9A1.449,1.449,0,0,0,26.63,27.455Zm.724,3.619a.724.724,0,0,1-1.448,0V28.9a.724.724,0,0,1,1.448,0Z" transform="translate(-1.667 -1.593)" fill="#00c0ff" stroke="#00c0ff" stroke-width="0.5"/></g></svg>