<svg xmlns="http://www.w3.org/2000/svg" width="19.025" height="23.004" viewBox="0 0 19.025 23.004"><g transform="translate(-27.6 -280.146)"><path d="M967.173,103.007a1.645,1.645,0,0,0,.384-.046l1.209-.29c.491-.118.761-.737.761-1.744a6.148,6.148,0,0,0-1.23-3.8.733.733,0,0,0-.481-.216l-.058,0-1.1.128-.012-.009c-1.271-.978-1.375-2.463-1.375-4.162s.1-3.187,1.376-4.165l.012-.009,1.106.128.057,0a.734.734,0,0,0,.481-.216,6.147,6.147,0,0,0,1.23-3.8c0-1.007-.27-1.627-.761-1.744l-1.209-.29a1.649,1.649,0,0,0-.384-.046c-2.5,0-4.642,5.572-4.644,10.133S964.674,103.007,967.173,103.007Zm0-19.558a.918.918,0,0,1,.217.026l1.2.286c.07.043.224.369.224,1.054a5.562,5.562,0,0,1-.991,3.266.451.451,0,0,1-.037.03l-1.194-.138a.361.361,0,0,0-.259.072l-.127.1c-1.526,1.174-1.653,2.908-1.654,4.731s.128,3.553,1.654,4.727l.127.1a.36.36,0,0,0,.259.072l1.194-.138a.422.422,0,0,1,.037.03,5.561,5.561,0,0,1,.991,3.266,1.711,1.711,0,0,1-.214,1.05l-1.209.29a.936.936,0,0,1-.217.026c-1.678,0-3.928-4.66-3.931-9.425C963.244,88.466,965.338,83.449,967.172,83.449Z" transform="translate(-890.411 584.094) rotate(-23)" fill="#374750" stroke="#374750" stroke-width="0.5"/><path d="M195.157,104.305a7.194,7.194,0,0,1,0,13.114v.775a7.907,7.907,0,0,0,0-14.665Z" transform="translate(-184.083 263.362) rotate(-23)" fill="#00c0ff" stroke="#00c0ff" stroke-linecap="round" stroke-linejoin="round" stroke-width="0.5"/><path d="M195.157,124.45a5.075,5.075,0,0,1,0,7.38v.893a5.709,5.709,0,0,0,0-9.166Z" transform="translate(-190.834 247.457) rotate(-23)" fill="#00c0ff" stroke="#00c0ff" stroke-linecap="round" stroke-linejoin="round" stroke-width="0.5"/></g></svg>