<svg xmlns="http://www.w3.org/2000/svg" width="12.05" height="21.409" viewBox="0 0 12.05 21.409"><g transform="translate(3.75 1.906) rotate(-45)"><path d="M194.3,222.193h-2.844a1.872,1.872,0,0,1,0-3.743h5a1.241,1.241,0,0,0,0-2.482h-2.347v-1.727a1.241,1.241,0,0,0-2.482,0v1.727h-.176a4.353,4.353,0,1,0,0,8.707H194.3a1.872,1.872,0,0,1,0,3.743h-5.1a1.241,1.241,0,1,0,0,2.482h2.44v1.768a1.241,1.241,0,1,0,2.482,0V230.9h.238a4.354,4.354,0,0,0-.062-8.707Z" transform="translate(17.01 -286.559) rotate(45)" fill="#fff" stroke="#006ba3" stroke-width="0.5"/><path d="M90.766,328.726a1.011,1.011,0,0,0-1.43,0l-1.4,1.4,1.43,1.43,1.4-1.4A1.011,1.011,0,0,0,90.766,328.726Z" transform="translate(-88.166 -328.109)" fill="#00c0ff"/><path d="M2.709,2.705a1.011,1.011,0,0,1-1.43,0L-.141,1.289l1.43-1.43,1.42,1.416A1.011,1.011,0,0,1,2.709,2.705Z" transform="translate(-9.125 12.342) rotate(90)" fill="#00c0ff"/></g></svg>