<svg xmlns="http://www.w3.org/2000/svg" width="30.548" height="20.374" viewBox="0 0 30.548 20.374"><g transform="translate(-2497.85 -2494.339)"><g transform="translate(2508.024 2494.34)" fill="none" stroke-linecap="round"><path d="M10.187,0A10.187,10.187,0,1,1,0,10.187,10.187,10.187,0,0,1,10.187,0Z" stroke="none"/><path d="M 10.18708896636963 1.399999618530273 C 5.341869354248047 1.399999618530273 1.399999618530273 5.341869354248047 1.399999618530273 10.18708896636963 C 1.399999618530273 15.03230857849121 5.341869354248047 18.97417831420898 10.18708896636963 18.97417831420898 C 15.03230857849121 18.97417831420898 18.97417831420898 15.03230857849121 18.97417831420898 10.18708896636963 C 18.97417831420898 5.341869354248047 15.03230857849121 1.399999618530273 10.18708896636963 1.399999618530273 M 10.18708896636963 -1.9073486328125e-06 C 15.81325912475586 -1.9073486328125e-06 20.37417984008789 4.560918807983398 20.37417984008789 10.18708896636963 C 20.37417984008789 15.81325912475586 15.81325912475586 20.37417984008789 10.18708896636963 20.37417984008789 C 4.560918807983398 20.37417984008789 -1.9073486328125e-06 15.81325912475586 -1.9073486328125e-06 10.18708896636963 C -1.9073486328125e-06 4.560918807983398 4.560918807983398 -1.9073486328125e-06 10.18708896636963 -1.9073486328125e-06 Z" stroke="none" fill="#fff"/></g><rect width="3.326" height="1.211" rx="0.605" transform="translate(2505.35 2494.536)" stroke-width="0.3" stroke="#00c0ff" stroke-linecap="round" stroke-linejoin="round" fill="#00c0ff"/><rect width="9.333" height="1.211" rx="0.605" transform="translate(2509.542 2494.536)" stroke-width="0.3" stroke="#fff" stroke-linecap="round" stroke-linejoin="round" fill="#fff"/><rect width="3.326" height="1.211" rx="0.605" transform="translate(2501.571 2499.337)" stroke-width="0.3" stroke="#00c0ff" stroke-linecap="round" stroke-linejoin="round" fill="#00c0ff"/><rect width="4.766" height="1.211" rx="0.605" transform="translate(2505.646 2499.337)" stroke-width="0.3" stroke="#fff" stroke-linecap="round" stroke-linejoin="round" fill="#fff"/><rect width="3.326" height="1.211" rx="0.605" transform="translate(2498 2504.534)" stroke-width="0.3" stroke="#00c0ff" stroke-linecap="round" stroke-linejoin="round" fill="#00c0ff"/><rect width="5.91" height="1.211" rx="0.605" transform="translate(2503.208 2504.535)" stroke-width="0.3" stroke="#fff" stroke-linecap="round" stroke-linejoin="round" fill="#fff"/><rect width="3.326" height="1.211" rx="0.605" transform="translate(2500.568 2508.34)" stroke-width="0.3" stroke="#00c0ff" stroke-linecap="round" stroke-linejoin="round" fill="#00c0ff"/><rect width="5.612" height="1.211" rx="0.605" transform="translate(2504.78 2508.34)" stroke-width="0.3" stroke="#fff" stroke-linecap="round" stroke-linejoin="round" fill="#fff"/><rect width="3.326" height="1.211" rx="0.605" transform="translate(2501.237 2510.962)" stroke-width="0.3" stroke="#00c0ff" stroke-linecap="round" stroke-linejoin="round" fill="#00c0ff"/><rect width="6.721" height="1.211" rx="0.605" transform="translate(2505.817 2510.962)" stroke-width="0.3" stroke="#fff" stroke-linecap="round" stroke-linejoin="round" fill="#fff"/><rect width="3.326" height="1.211" rx="0.605" transform="translate(2504.139 2513.328)" stroke-width="0.3" stroke="#00c0ff" stroke-linecap="round" stroke-linejoin="round" fill="#00c0ff"/><rect width="10.47" height="1.211" rx="0.605" transform="translate(2508.349 2513.328)" stroke-width="0.3" stroke="#fff" stroke-linecap="round" stroke-linejoin="round" fill="#fff"/><path d="M3.509,4.482H2.123a.913.913,0,1,1,0-1.825h2.44a.605.605,0,0,0,0-1.21H3.419V.605a.605.605,0,0,0-1.21,0v.842H2.123a2.123,2.123,0,1,0,0,4.245H3.509a.913.913,0,0,1,0,1.825H1.024a.605.605,0,0,0,0,1.21h1.19V9.59a.605.605,0,1,0,1.21,0V8.728H3.54a2.123,2.123,0,0,0-.03-4.245Z" transform="translate(2515.182 2499.295)" fill="#fff" stroke="#fff" stroke-width="0.3"/></g></svg>