<svg xmlns="http://www.w3.org/2000/svg" width="19.951" height="19.951" viewBox="0 0 19.951 19.951"><g transform="translate(0.5 0.5)"><path d="M17.975,7.37H16.2a.681.681,0,0,1-.481-1.162l1.254-1.253a.976.976,0,0,0,0-1.38l-1.6-1.6a1,1,0,0,0-1.38,0L12.743,3.23a.681.681,0,0,1-1.162-.481V.976A.977.977,0,0,0,10.605,0H8.345A.977.977,0,0,0,7.37.976V2.749a.681.681,0,0,1-1.162.481L4.955,1.976a1,1,0,0,0-1.38,0l-1.6,1.6a.976.976,0,0,0,0,1.38L3.23,6.208A.681.681,0,0,1,2.749,7.37H.976A.977.977,0,0,0,0,8.345v2.26a.977.977,0,0,0,.976.976H2.749a.681.681,0,0,1,.481,1.162L1.976,14a.976.976,0,0,0,0,1.38l1.6,1.6a1,1,0,0,0,1.38,0l1.253-1.254A.681.681,0,0,1,7.37,16.2v1.773a.977.977,0,0,0,.976.976h2.26a.977.977,0,0,0,.976-.976V16.2a.681.681,0,0,1,1.162-.481L14,16.974a1,1,0,0,0,1.38,0l1.6-1.6a.976.976,0,0,0,0-1.38L15.72,12.743a.681.681,0,0,1,.482-1.162h1.773a.977.977,0,0,0,.976-.976V8.345A.977.977,0,0,0,17.975,7.37Zm.274,3.236a.274.274,0,0,1-.274.274H16.2a1.383,1.383,0,0,0-.978,2.36l1.254,1.253a.274.274,0,0,1,0,.387l-1.6,1.6a.274.274,0,0,1-.387,0L13.24,15.224a1.383,1.383,0,0,0-2.36.978v1.773a.274.274,0,0,1-.274.274H8.345a.274.274,0,0,1-.274-.274V16.2a1.361,1.361,0,0,0-.853-1.277,1.4,1.4,0,0,0-.538-.109,1.363,1.363,0,0,0-.969.408L4.458,16.478a.274.274,0,0,1-.387,0l-1.6-1.6a.274.274,0,0,1,0-.387l1.254-1.253a1.382,1.382,0,0,0-.978-2.36H.976A.274.274,0,0,1,.7,10.605V8.345a.274.274,0,0,1,.274-.274H2.749a1.383,1.383,0,0,0,.978-2.36L2.473,4.458a.274.274,0,0,1,0-.387l1.6-1.6a.274.274,0,0,1,.387,0L5.711,3.726a1.383,1.383,0,0,0,2.36-.977V.976A.274.274,0,0,1,8.345.7h2.26a.274.274,0,0,1,.274.274V2.749a1.383,1.383,0,0,0,2.36.978l1.253-1.253a.274.274,0,0,1,.387,0l1.6,1.6a.274.274,0,0,1,0,.387L15.224,5.712a1.383,1.383,0,0,0,.978,2.36h1.773a.274.274,0,0,1,.274.273Z" fill="#374750" stroke="#374750" stroke-width="1"/><path d="M21.158,18a3.158,3.158,0,1,0,3.158,3.158A3.162,3.162,0,0,0,21.158,18Zm0,5.615a2.457,2.457,0,1,1,2.457-2.457A2.46,2.46,0,0,1,21.158,23.615Z" transform="translate(-11.683 -11.683)" fill="#00c0ff" stroke="#00c0ff" stroke-width="1"/></g></svg>