<svg id="Layer_1" data-name="Layer 1" xmlns="http://www.w3.org/2000/svg" viewBox="0 0 412.05 500"><defs><style>.cls-1{fill:#e5e5e5;}.cls-2{fill:#0d3082;}.cls-3{fill:#f1f1f1;}.cls-4{fill:#8ccef3;}.cls-5{fill:#53b6ed;}.cls-6{fill:#fff;}</style></defs><title>Free Call Centre Vector Icons</title><polygon class="cls-1" points="259.17 196.36 158.82 196.36 136.52 295.94 209 317.65 281.47 295.94 259.17 196.36"/><path class="cls-2" d="M182.63,297.64,89.54,341.7a87.4,87.4,0,0,0-42.61,48.36V524H253V320.66Z" transform="translate(-46.93 -23.98)"/><path class="cls-2" d="M323.78,297.64l92.59,44.06A87.4,87.4,0,0,1,459,390.06V524H253V320.66Z" transform="translate(-46.93 -23.98)"/><polygon class="cls-3" points="135.7 273.66 206.03 500 276.85 273.66 206.03 296.68 135.7 273.66"/><polygon class="cls-4" points="206.03 296.68 206.03 500 170.76 386.5 191.42 326.48 167.25 298.88 206.03 296.68"/><polygon class="cls-5" points="206.03 296.68 206.03 500 241.61 386.5 220.63 326.48 244.8 298.88 206.03 296.68"/><polygon class="cls-6" points="135.7 273.66 111.49 345.35 206.03 296.68 135.7 273.66"/><polygon class="cls-6" points="276.85 273.66 300.56 345.35 206.03 296.68 276.85 273.66"/><path class="cls-3" d="M306.28,285.42h0a93.06,93.06,0,0,1-100.7,0h0a93.05,93.05,0,0,1-42.7-78.25V99.36H349V207.17A93.07,93.07,0,0,1,306.28,285.42Z" transform="translate(-46.93 -23.98)"/><path class="cls-2" d="M168.93,137.07l-1.14-13.87s80.27,31.14,166.41-9.47c0,0-4,55.53,15.72,71.53,0,0,32.9-66.15-6.48-115.38,0,0-99.41-95.66-187.94,24.38,0,0-13.36,54.3,6.95,94.3h0A126.46,126.46,0,0,0,168.93,137.07Z" transform="translate(-46.93 -23.98)"/><path class="cls-5" d="M369.05,179.63H359.8V136.77a103.55,103.55,0,0,0-207.09,0v42.86h-9.25V136.77a112.8,112.8,0,0,1,225.59,0Z" transform="translate(-46.93 -23.98)"/><path class="cls-5" d="M364.35,180l-9.25.2a106,106,0,0,1-8.41,39.94c-11,25.17-31,38.78-59.35,40.56a11.13,11.13,0,1,0,1.49,9.2c39.21-2.82,57.7-26.36,66.33-46.05A114.35,114.35,0,0,0,364.35,180Z" transform="translate(-46.93 -23.98)"/><path class="cls-4" d="M150.08,221.69h0a24.92,24.92,0,0,1-24.91-24.92V178.25a24.91,24.91,0,0,1,24.91-24.91h0a13.06,13.06,0,0,1,13.06,13.06v42.22A13.07,13.07,0,0,1,150.08,221.69Z" transform="translate(-46.93 -23.98)"/><path class="cls-4" d="M361.78,221.69h0a24.92,24.92,0,0,0,24.91-24.92V178.25a24.91,24.91,0,0,0-24.91-24.91h0a13.06,13.06,0,0,0-13.07,13.06v42.22A13.07,13.07,0,0,0,361.78,221.69Z" transform="translate(-46.93 -23.98)"/></svg>