<svg xmlns="http://www.w3.org/2000/svg" width="21.218" height="20" viewBox="0 0 21.218 20"><g transform="translate(-162.409 -180.641)"><path d="M166.573,190.877c.13-.13.086-.236-.1-.236h-1.091a8.305,8.305,0,1,1,1.185,4.258c-.069-.116-.1-.178-.1-.178a.136.136,0,0,0-.224-.048l-.127.127-.678.679-.223.224a.177.177,0,0,0-.023.208s.109.175.2.316a9.984,9.984,0,1,0-1.72-5.586h-1.091c-.184,0-.229.107-.1.236l1.9,1.908a.2.2,0,0,0,.283,0l1.9-1.908" transform="translate(0 0)" fill="#fff"/><path d="M-2854.272.036l-5.018-2.926a.5.5,0,0,1-.393-.489v-5a.5.5,0,0,1,.5-.5.5.5,0,0,1,.5.5v4.613l4.947,2.871a.537.537,0,0,1,.2.734.536.536,0,0,1-.465.268A.533.533,0,0,1-2854.272.036Z" transform="translate(3032 194)" fill="#00c0ff" stroke="#00c0ff" stroke-linecap="round" stroke-width="1"/></g></svg>