<svg xmlns="http://www.w3.org/2000/svg" width="17" height="17.001" viewBox="0 0 17 17.001"><g transform="translate(-281.163 -412.995)"><path d="M289.659,412.995a8.5,8.5,0,1,0,3.258,16.351,8.5,8.5,0,0,0-3.258-16.351Zm6.55,4.926h-1.721a8.616,8.616,0,0,0-1.491-3.1A7.46,7.46,0,0,1,296.209,417.921Zm-13.554,6.1a7.4,7.4,0,0,1,0-5.053h2.371a14.134,14.134,0,0,0-.219,2.527,13.8,13.8,0,0,0,.236,2.526Zm3.194-2.526a13.483,13.483,0,0,1,.236-2.527h3.263v5.053h-3.234A12.309,12.309,0,0,1,285.849,421.49Zm4.547-7.246c1.312.293,2.4,1.692,3,3.683h-3Zm-1.042,0v3.677h-3C286.948,415.936,288.042,414.537,289.354,414.244Zm0,10.82v3.671c-1.232-.322-2.325-1.743-2.952-3.671Zm1.042,3.671v-3.671h2.952C292.721,426.992,291.627,428.413,290.4,428.735Zm0-4.719v-5.053h3.263a13.076,13.076,0,0,1,.236,2.527,11.9,11.9,0,0,1-.271,2.526Zm4.328-5.053h1.956a7.4,7.4,0,0,1-.005,5.053H294.7a13.288,13.288,0,0,0,.236-2.526A14.77,14.77,0,0,0,294.724,418.963Zm-7.908-4.357.178-.069a8.269,8.269,0,0,0-1.732,3.39h-2.141A7.385,7.385,0,0,1,286.816,414.606Zm-3.7,10.458h2.17a8.456,8.456,0,0,0,1.83,3.441A7.448,7.448,0,0,1,283.121,425.064Zm9.75,3.159a8.846,8.846,0,0,0,1.582-3.159h1.75A7.454,7.454,0,0,1,292.871,428.223Z" fill="#040505"/><path d="M282.646,418.963H296.68a7.5,7.5,0,0,0-.465-1.042h-13.1A7.5,7.5,0,0,0,282.646,418.963Z" fill="#20b0e9"/><path d="M296.679,424.016H282.647a7.569,7.569,0,0,0,.465,1.048h13.1A7.565,7.565,0,0,0,296.679,424.016Z" fill="#20b0e9"/></g></svg>