<svg xmlns="http://www.w3.org/2000/svg" width="199.205" height="215.162" viewBox="0 0 199.205 215.162"><defs><style>.a{fill:#0f2f82;}.b{fill:#a17720;}.c{fill:#00b5eb;}</style></defs><g transform="translate(-37.791 -116.809)"><path class="a" d="M49.593,316.627l-7.149-13.013H42.33v13.013H37.791V289.844H42.33v11.613h.114l6.809-11.613H54.36l-7.869,12.332,8.361,14.451Z"/><path class="a" d="M73.35,311.1a8.931,8.931,0,0,1-1.475,3.234,7.15,7.15,0,0,1-2.629,2.175,8.768,8.768,0,0,1-3.915.8,8.646,8.646,0,0,1-3.9-.8,7.018,7.018,0,0,1-2.591-2.175A8.878,8.878,0,0,1,57.4,311.1a17.35,17.35,0,0,1-.435-3.972V289.844h4.54v16.872a16.375,16.375,0,0,0,.17,2.4,6.662,6.662,0,0,0,.6,2.023,3.523,3.523,0,0,0,1.192,1.381,3.9,3.9,0,0,0,3.858,0,3.523,3.523,0,0,0,1.192-1.381,6.662,6.662,0,0,0,.605-2.023,16.373,16.373,0,0,0,.171-2.4V289.844h4.5v17.288A16.638,16.638,0,0,1,73.35,311.1Z"/><path class="a" d="M99.6,316.627h-5.22L90.676,296.5H90.6l-3.707,20.125H81.672l-5.107-26.783H81.18l3.443,20.806h.151l3.594-20.806h4.767l3.707,20.806h.076l3.442-20.806h4.388Z"/><path class="a" d="M118.631,316.627l-1.323-5.675h-7.037l-1.362,5.675H104.37l6.658-26.783h5.788l6.544,26.783ZM113.9,294.119h-.151L110.839,307.4h5.9Z"/><path class="a" d="M126.159,316.627V289.844h4.54v26.783Z"/><path class="a" d="M142.841,293.7v22.925h-4.463V293.7h-5.032v-3.858h14.527V293.7Z"/><path class="a" d="M156.989,316.627V289.844h4.54v26.783Z"/><path class="a" d="M178.7,316.627l-7.6-18.915h-.113l.075,18.915h-4.085V289.844h5.182l7.528,19.028h.114l-.038-19.028H183.7v26.783Z"/><path class="a" d="M206.356,303.273q0,6.355-2.667,9.854t-7.85,3.5h-6.7V289.844h6.733q5.145,0,7.812,3.537T206.356,303.273Zm-4.539,0a17.643,17.643,0,0,0-.436-4.161,9.1,9.1,0,0,0-1.229-2.951,5.353,5.353,0,0,0-1.891-1.759,5,5,0,0,0-2.384-.586h-2.156v18.839h2.156a4.974,4.974,0,0,0,2.384-.587,5.326,5.326,0,0,0,1.891-1.759,9.094,9.094,0,0,0,1.229-2.931A17.219,17.219,0,0,0,201.817,303.273Z"/><path class="a" d="M210.668,316.627V289.844h4.539v26.783Z"/><path class="a" d="M232.268,316.627l-1.324-5.675h-7.036l-1.362,5.675h-4.54l6.658-26.783h5.788L237,316.627Zm-4.729-22.508h-.151L224.475,307.4h5.9Z"/><path class="a" d="M40.952,331.789,39.037,328.3h-.03v3.486H37.791v-7.174h1.216v3.11h.03l1.824-3.11h1.368l-2.108,3.3,2.24,3.871Z"/><path class="a" d="M47.316,330.309a2.394,2.394,0,0,1-.4.867,1.918,1.918,0,0,1-.7.582,2.346,2.346,0,0,1-1.049.213,2.31,2.31,0,0,1-1.043-.213,1.886,1.886,0,0,1-.694-.582,2.378,2.378,0,0,1-.385-.867,4.632,4.632,0,0,1-.117-1.064v-4.63h1.216v4.519a4.326,4.326,0,0,0,.046.643,1.768,1.768,0,0,0,.162.542.945.945,0,0,0,.319.37,1.044,1.044,0,0,0,1.034,0,.945.945,0,0,0,.319-.37,1.825,1.825,0,0,0,.162-.542,4.464,4.464,0,0,0,.046-.643v-4.519h1.205v4.63A4.469,4.469,0,0,1,47.316,330.309Z"/><path class="a" d="M54.348,331.789h-1.4l-.993-5.391h-.02l-.993,5.391h-1.4l-1.368-7.174h1.236l.922,5.573h.041l.962-5.573h1.277l.993,5.573h.02l.923-5.573h1.175Z"/><path class="a" d="M59.444,331.789l-.354-1.52H57.205l-.364,1.52H55.624l1.784-7.174h1.55l1.753,7.174Zm-1.266-6.029h-.041l-.78,3.556h1.581Z"/><path class="a" d="M61.461,331.789v-7.174h1.216v7.174Z"/><path class="a" d="M65.929,325.648v6.141h-1.2v-6.141H63.386v-1.033h3.891v1.033Z"/><path class="a" d="M69.719,331.789v-7.174h1.216v7.174Z"/><path class="a" d="M75.535,331.789,73.5,326.722h-.03l.02,5.067h-1.1v-7.174h1.389l2.016,5.1h.03l-.01-5.1h1.054v7.174Z"/><path class="a" d="M82.942,328.211a4.271,4.271,0,0,1-.715,2.64,2.478,2.478,0,0,1-2.1.938H78.331v-7.174h1.8a2.455,2.455,0,0,1,2.092.947A4.315,4.315,0,0,1,82.942,328.211Zm-1.216,0a4.709,4.709,0,0,0-.117-1.114,2.413,2.413,0,0,0-.329-.79,1.415,1.415,0,0,0-.507-.471,1.328,1.328,0,0,0-.638-.158h-.577v5.047h.577a1.328,1.328,0,0,0,.638-.157,1.427,1.427,0,0,0,.507-.472,2.412,2.412,0,0,0,.329-.785A4.592,4.592,0,0,0,81.726,328.211Z"/><path class="a" d="M84.1,331.789v-7.174h1.216v7.174Z"/><path class="a" d="M89.882,331.789l-.354-1.52H87.643l-.365,1.52H86.062l1.784-7.174H89.4l1.753,7.174Zm-1.266-6.029h-.041l-.78,3.556h1.581Z"/><path class="a" d="M93.692,331.789v-7.174h1.216v7.174Z"/><path class="a" d="M99.508,331.789l-2.037-5.067h-.03l.02,5.067H96.367v-7.174h1.388l2.016,5.1H99.8l-.01-5.1h1.053v7.174Z"/><path class="a" d="M104.1,325.648v6.141H102.9v-6.141h-1.348v-1.033h3.891v1.033Z"/><path class="a" d="M106.155,331.789v-7.174h3.212v1.073H107.32v1.9h1.895v.993H107.32V330.7h2.149v1.085Z"/><path class="a" d="M113.542,331.789l-1.115-3.061h-.679v3.061h-1.175v-7.174h2.047a2.741,2.741,0,0,1,.82.116,1.619,1.619,0,0,1,.643.37,1.73,1.73,0,0,1,.421.638,2.518,2.518,0,0,1,.152.922,2.323,2.323,0,0,1-.106.735,1.973,1.973,0,0,1-.269.542,1.517,1.517,0,0,1-.36.36,1.241,1.241,0,0,1-.39.187l1.287,3.3Zm-.082-5.067a1.367,1.367,0,0,0-.091-.537.866.866,0,0,0-.238-.334.89.89,0,0,0-.329-.173,1.389,1.389,0,0,0-.365-.05h-.689v2.209h.689a1.016,1.016,0,0,0,.735-.279A1.111,1.111,0,0,0,113.46,326.722Z"/><path class="a" d="M118.912,331.789l-2.037-5.067h-.031l.021,5.067h-1.1v-7.174h1.389l2.016,5.1h.03l-.01-5.1h1.054v7.174Z"/><path class="a" d="M124.819,331.789l-.355-1.52H122.58l-.365,1.52H121l1.783-7.174h1.551l1.752,7.174Zm-1.267-6.029h-.04l-.78,3.556h1.58Z"/><path class="a" d="M128.446,325.648v6.141h-1.195v-6.141H125.9v-1.033h3.891v1.033Z"/><path class="a" d="M130.5,331.789v-7.174h1.216v7.174Z"/><path class="a" d="M138.032,328.191a6.246,6.246,0,0,1-.177,1.545,3.836,3.836,0,0,1-.512,1.191,2.421,2.421,0,0,1-.816.77,2.271,2.271,0,0,1-2.163,0,2.434,2.434,0,0,1-.811-.77,3.789,3.789,0,0,1-.511-1.191,6.2,6.2,0,0,1-.178-1.545,6.4,6.4,0,0,1,.172-1.54,3.722,3.722,0,0,1,.507-1.185,2.377,2.377,0,0,1,.816-.765,2.319,2.319,0,0,1,2.168,0,2.376,2.376,0,0,1,.816.765,3.842,3.842,0,0,1,.512,1.185A6.2,6.2,0,0,1,138.032,328.191Zm-1.257,0a5.778,5.778,0,0,0-.086-1.028,3.258,3.258,0,0,0-.253-.831,1.563,1.563,0,0,0-.416-.552.878.878,0,0,0-.572-.2.9.9,0,0,0-.583.2,1.585,1.585,0,0,0-.415.552,3.147,3.147,0,0,0-.248.831,6.571,6.571,0,0,0,0,2.057,3.233,3.233,0,0,0,.248.836,1.57,1.57,0,0,0,.415.557.937.937,0,0,0,1.165,0,1.548,1.548,0,0,0,.416-.557,3.232,3.232,0,0,0,.248-.836A6.2,6.2,0,0,0,136.775,328.191Z"/><path class="a" d="M142.308,331.789l-2.037-5.067h-.03l.02,5.067h-1.1v-7.174h1.389l2.016,5.1h.03l-.01-5.1h1.054v7.174Z"/><path class="a" d="M148.215,331.789l-.355-1.52h-1.885l-.364,1.52H144.4l1.783-7.174h1.55l1.753,7.174Zm-1.267-6.029h-.04l-.781,3.556h1.581Z"/><path class="a" d="M150.231,331.789v-7.174h1.226v6.049h1.976v1.125Z"/><path class="a" d="M155.956,331.789v-7.174h3.212v1.073h-2.046v1.9h1.894v.993h-1.894V330.7h2.148v1.085Z"/><path class="a" d="M163.363,331.789l-1.2-2.746-1.205,2.746H159.7l1.794-3.78-1.622-3.394h1.267l1.064,2.472,1.054-2.472H164.5l-1.631,3.394,1.8,3.78Z"/><path class="a" d="M168.708,331.708a2.367,2.367,0,0,1-2.209-.021,2.515,2.515,0,0,1-.831-.785,3.964,3.964,0,0,1-.527-1.191,5.735,5.735,0,0,1-.187-1.51,5.792,5.792,0,0,1,.187-1.514,3.87,3.87,0,0,1,.532-1.2,2.521,2.521,0,0,1,.836-.78,2.169,2.169,0,0,1,1.089-.279,2.444,2.444,0,0,1,1.085.228,1.954,1.954,0,0,1,.76.654l-.7.851a1.258,1.258,0,0,0-1.074-.6,1.022,1.022,0,0,0-.638.208,1.618,1.618,0,0,0-.456.562,3.063,3.063,0,0,0-.274.836,5.594,5.594,0,0,0-.091,1.028,5.534,5.534,0,0,0,.091,1.019,3.075,3.075,0,0,0,.274.836,1.577,1.577,0,0,0,.461.562,1.062,1.062,0,0,0,.654.208,1.04,1.04,0,0,0,.613-.182,1.659,1.659,0,0,0,.43-.446l.7.82A2.242,2.242,0,0,1,168.708,331.708Z"/><path class="a" d="M173.648,331.789v-3.182H171.5v3.182h-1.2v-7.174h1.2v2.908h2.149v-2.908h1.206v7.174Z"/><path class="a" d="M179.423,331.789l-.354-1.52h-1.885l-.365,1.52H175.6l1.784-7.174h1.55l1.753,7.174Zm-1.266-6.029h-.041l-.78,3.556h1.581Z"/><path class="a" d="M184.581,331.789l-2.037-5.067h-.03l.02,5.067h-1.1v-7.174h1.389l2.016,5.1h.03l-.01-5.1h1.054v7.174Z"/><path class="a" d="M190.868,331.778a3.2,3.2,0,0,1-1.08.163,2.409,2.409,0,0,1-1.145-.269,2.439,2.439,0,0,1-.856-.765,3.771,3.771,0,0,1-.537-1.186,5.819,5.819,0,0,1-.187-1.53,5.924,5.924,0,0,1,.182-1.51,3.825,3.825,0,0,1,.527-1.19,2.545,2.545,0,0,1,.831-.78,2.16,2.16,0,0,1,1.1-.279,2.489,2.489,0,0,1,1.1.228,1.987,1.987,0,0,1,.76.643l-.7.852a1.265,1.265,0,0,0-1.1-.588,1.042,1.042,0,0,0-.653.213,1.633,1.633,0,0,0-.461.572,3.157,3.157,0,0,0-.274.836,5.4,5.4,0,0,0-.091,1,5.6,5.6,0,0,0,.091,1.029,3.146,3.146,0,0,0,.274.841,1.526,1.526,0,0,0,.461.562,1.1,1.1,0,0,0,.663.2,1.582,1.582,0,0,0,.441-.056.946.946,0,0,0,.319-.147v-1.854h-.871v-1.054h1.976v3.638A2.61,2.61,0,0,1,190.868,331.778Z"/><path class="a" d="M192.94,331.789v-7.174h3.212v1.073H194.1v1.9H196v.993h-1.9V330.7h2.148v1.085Z"/><path class="a" d="M202.773,331.708a2.365,2.365,0,0,1-2.208-.021,2.516,2.516,0,0,1-.831-.785,3.94,3.94,0,0,1-.527-1.191,5.734,5.734,0,0,1-.188-1.51,5.791,5.791,0,0,1,.188-1.514,3.871,3.871,0,0,1,.532-1.2,2.512,2.512,0,0,1,.836-.78,2.164,2.164,0,0,1,1.089-.279,2.439,2.439,0,0,1,1.084.228,1.947,1.947,0,0,1,.76.654l-.7.851a1.258,1.258,0,0,0-1.074-.6,1.022,1.022,0,0,0-.638.208,1.62,1.62,0,0,0-.457.562,3.1,3.1,0,0,0-.273.836,5.507,5.507,0,0,0-.091,1.028,5.448,5.448,0,0,0,.091,1.019,3.109,3.109,0,0,0,.273.836,1.59,1.59,0,0,0,.462.562,1.057,1.057,0,0,0,.653.208,1.04,1.04,0,0,0,.613-.182,1.663,1.663,0,0,0,.431-.446l.7.82A2.245,2.245,0,0,1,202.773,331.708Z"/><path class="a" d="M208.331,328.2a9.912,9.912,0,0,1-.086,1.277,4.461,4.461,0,0,1-.324,1.206,2.352,2.352,0,0,1-.664.9,1.667,1.667,0,0,1-1.094.35,1.651,1.651,0,0,1-1.09-.35,2.423,2.423,0,0,1-.663-.9,4.323,4.323,0,0,1-.329-1.206,9.517,9.517,0,0,1,0-2.553,4.333,4.333,0,0,1,.329-1.206,2.424,2.424,0,0,1,.663-.9,1.65,1.65,0,0,1,1.09-.349,1.667,1.667,0,0,1,1.094.349,2.352,2.352,0,0,1,.664.9,4.472,4.472,0,0,1,.324,1.206A9.921,9.921,0,0,1,208.331,328.2Zm-1.226,0q0-.364-.03-.825a5.117,5.117,0,0,0-.127-.862,2.068,2.068,0,0,0-.284-.678.59.59,0,0,0-1,0,2.067,2.067,0,0,0-.283.678,5.015,5.015,0,0,0-.127.862q-.03.461-.03.825t.03.826a5.136,5.136,0,0,0,.127.867,2.019,2.019,0,0,0,.283.679.6.6,0,0,0,1,0,2.02,2.02,0,0,0,.284-.679,5.241,5.241,0,0,0,.127-.867Q207.105,328.566,207.1,328.2Z"/><path class="a" d="M210.631,331.13a.749.749,0,0,1-.2.527.654.654,0,0,1-.5.212.636.636,0,0,1-.5-.212.755.755,0,0,1-.193-.527.778.778,0,0,1,.193-.527.626.626,0,0,1,.5-.223.644.644,0,0,1,.5.223A.772.772,0,0,1,210.631,331.13Z"/><path class="a" d="M219.021,331.789h-1.4l-.993-5.391h-.02l-.993,5.391h-1.4l-1.368-7.174h1.237l.922,5.573h.04l.963-5.573h1.276l.993,5.573h.021l.922-5.573H220.4Z"/><path class="a" d="M224.31,331.13a.749.749,0,0,1-.2.527.654.654,0,0,1-.5.212.637.637,0,0,1-.5-.212.755.755,0,0,1-.193-.527.778.778,0,0,1,.193-.527.627.627,0,0,1,.5-.223.644.644,0,0,1,.5.223A.772.772,0,0,1,224.31,331.13Z"/><path class="a" d="M225.587,331.789v-7.174h1.226v6.049h1.976v1.125Z"/><path class="a" d="M232.517,331.13a.749.749,0,0,1-.2.527.654.654,0,0,1-.5.212.637.637,0,0,1-.5-.212.755.755,0,0,1-.193-.527.778.778,0,0,1,.193-.527.627.627,0,0,1,.5-.223.644.644,0,0,1,.5.223A.772.772,0,0,1,232.517,331.13Z"/><path class="a" d="M233.794,331.789v-7.174h1.227v6.049H237v1.125Z"/><path class="b" d="M215.767,207.793l9.776,6.136a2.624,2.624,0,0,0,3.541-.712l5.24-7.445a1.585,1.585,0,0,0,.133-1.668,1.766,1.766,0,0,0-1.422-.841l-13.963-6.7a.762.762,0,0,1-.1-.06,5.119,5.119,0,0,1-1.979-2.394.848.848,0,0,0-1.384-.408,2.557,2.557,0,0,0-.441.546l-15.015,26.315-4.05.028c-.122-.044-1.9-.719-2.051-1.752-.152-1.069-1.909-26.576,5.728-46.279,0,0,9.088-22.606,16.572-28.715a5.165,5.165,0,0,0,5.346-.535c2.673-1.985-1.069-8.553-5.575-4.353a4.106,4.106,0,0,0-.764,2.673l-33.7,19.854L176.178,138.5c-1.146-5.8,2.005-8.611,2.005-8.611l10.65-6.094a31.557,31.557,0,0,1,4.045-.422,3.491,3.491,0,0,0,2.2-.89c1.9-1.771.008-4.041-.636-4.713a2.192,2.192,0,0,0-.371-.316c-4.158-2.776-6.47,4.273-6.47,4.273a2.056,2.056,0,0,1-.548.416l-15.934,8.462,0,.016-42.888,22.822-6.627-18.467a4.17,4.17,0,0,1,.612-3.2c4.017-3.944-.066-7.222-.43-7.5l.106.008c.315-4.3-.659-4.9-.659-4.9-1.376.441-1.43,4.415-1.432,4.724-3.463,2.785-2.739,5.607-1.594,7.1a2.918,2.918,0,0,1,.41,2.409,121.375,121.375,0,0,1-24.4,38.519L50.856,196.161,45.128,220.79,41.3,222a1.584,1.584,0,0,0-.954.818c-.481,1.007-.547,2.806,5.351,2.557l5.65-.132,4.488-.032-.028,9.672-2.664-.115a9.015,9.015,0,0,0,4.582,6.873c2.864-2.061,3.551-6.873,3.551-6.873l-2.377.058v-2.292l6.931-.057L89,258.936l17.985.344-2.634-3.666L89.117,255.5,64.8,225.171l-2.707-.008,50.275-.364,3.552-3.551H95.99l-22.279-.059,3.55-4.437,24.027-.628,1.69-3.009-3.495.358c-.323.033-.647.057-.974.073-1.89.093-3.838-.072-5.715-.152-3.926-.168-7.856-.217-11.782-.374a60.775,60.775,0,0,0-6.288-.014q-1.75.126-3.5.3-5.259.531-10.464,1.481-3.029.557-6.023,1.28-1.568.383-3.122.817-.767.216-1.53.446c-.075.023-.379.14-.7.253l4.442-19.135,59.286-31.824.206-.06-1.935,20.25-.967,10.106,0,0,0,.021,3.623-4.08-.1,1.095,2.56-21.809.866-7.3,2.443-1.454L170.6,134.76s-17.468,23.229-23.531,47.1l-15.723,9.262,5.193,1.069,33.7-20.077c.12,2.856.623,15.761.319,24.278l1.775,2.4,1.145-28.612,34.081-20.3s-22.521,34.888-15.714,70.743l-7.2.051-14.51,38.91,10.921-.191q.186-.122.377-.237a12.208,12.208,0,0,1,5.352-1.622,15.109,15.109,0,0,1,2.149-.007,4.954,4.954,0,0,1,1.894.326c.246.133.5.257.749.376a16.155,16.155,0,0,0,5.651,1.488,18.266,18.266,0,0,0,5.146-.369,22.462,22.462,0,0,0,4.21-1.347,23.681,23.681,0,0,0,2.839-1.448,9.211,9.211,0,0,0,1.035-.673c7.446-5.995,2.5-6.453,2.5-6.453a1.2,1.2,0,0,1-1.225-1.1,3.19,3.19,0,0,1,.611-1.572c.3-.515.638-1.011.946-1.523q.837-1.386,1.673-2.773l1.9-3.148,1.557-2.582.646-1.07,5.251-8.8s.586.132.646.14a3.906,3.906,0,0,0,.63.031,3.837,3.837,0,0,0,1.113-.208,4.606,4.606,0,0,0,1.549-.93,6.532,6.532,0,0,0,1.158-1.489,7.482,7.482,0,0,0,1.13-2.892,3.032,3.032,0,0,0-.068-1.258,2.194,2.194,0,0,0-1.034-1.192q-.5-.338-1.008-.667c-.687-.444-1.383-.873-2.093-1.277a8,8,0,0,0-3.492-1.27,4.772,4.772,0,0,0-3.209,1.114,8.36,8.36,0,0,0-1.9,2.258c-.17.284-.328.577-.469.877a2.508,2.508,0,0,1-.153.348l-10.757.076,6.483-11.965A2.062,2.062,0,0,1,215.767,207.793Zm5.566-7.271.144-.249a.543.543,0,0,1,.742-.2l8.977,5.184a1.375,1.375,0,0,1-1.877.5l-7.787-4.5A.544.544,0,0,1,221.333,200.522Zm-3.083,4.761.158-.24a.543.543,0,0,1,.753-.155l8.655,5.707h0a1.376,1.376,0,0,1-1.9.391l-7.506-4.95A.543.543,0,0,1,218.25,205.283ZM61.968,229.152l-3.208-.029-.114-3.293C62.77,226.517,61.968,229.152,61.968,229.152Zm-5.882-9.508c.859-.255,1.73-.466,2.606-.655.941-.2,1.888-.378,2.837-.537s1.889-.3,2.837-.426q1.3-.176,2.606-.32,1.072-.12,2.147-.221.727-.069,1.457-.129c.179-.014.358-.029.537-.041l-3.932,3.79L52.8,221.076A11.235,11.235,0,0,1,56.086,219.644Zm64.505-75.519,4.038,11.14-2.852,1.618-3.287,1.749Zm-5.27,5.355-.744,11.169-10.6,5.67Zm60.8,7.847,1.235,6.691-3.344,1.97-1.328-5.683Zm-5.365,8.362s.687,3.055-3.513,3.666C167.243,169.355,167.014,166.148,170.756,165.689Zm.973-26.127a.6.6,0,0,1,1,.3l2.818,13.4-15.531,20.972-9.307,5.483C151.169,178.265,159.872,151.1,171.729,139.562ZM215.441,224.2l-17.5,31.423a1.59,1.59,0,0,1-.423.5,2.2,2.2,0,0,1-2.088.221.95.95,0,0,1-.635-1.394L211.947,224.2Zm-9.214,1.9-15.52,28.061-8.114.057a9.214,9.214,0,0,1-2.883,1.356,18.331,18.331,0,0,1-2.329-.134l7.7-27.619A5.23,5.23,0,0,1,190.116,224h14.871A1.418,1.418,0,0,1,206.227,226.1Zm4.051-18.406-6.494,12.135a.3.3,0,0,1-.407.123l-.079-.043a.3.3,0,0,1-.123-.407l6.494-12.135a.3.3,0,0,1,.406-.123l.08.043A.3.3,0,0,1,210.278,207.7Zm2.484-3.74-.416-.223a.232.232,0,0,1-.1-.314l2.255-4.214a.233.233,0,0,1,.315-.1l.416.223a.231.231,0,0,1,.1.314l-2.255,4.214A.231.231,0,0,1,212.762,203.956Z"/><path class="b" d="M113.431,199.683l22.361-11.772-22.258,10.631Z"/><path class="c" d="M140.208,184.705a45.821,45.821,0,1,0,45.822,45.822A45.822,45.822,0,0,0,140.208,184.705Zm0,56.09a10.268,10.268,0,1,1,10.268-10.268A10.268,10.268,0,0,1,140.208,240.795Z"/></g></svg>