<svg xmlns="http://www.w3.org/2000/svg" width="21.055" height="16.191" viewBox="0 0 21.055 16.191"><g transform="translate(0.5 0.5)"><path d="M218.621,227.533v10.125a2.505,2.505,0,0,0,2.467,2.533h7.968a2.505,2.505,0,0,0,2.467-2.533v-1.64a.489.489,0,1,0-.977,0v1.64a1.518,1.518,0,0,1-1.494,1.534h-7.964a1.518,1.518,0,0,1-1.494-1.534V227.533A1.518,1.518,0,0,1,221.088,226h7.968a1.518,1.518,0,0,1,1.494,1.534v1.64a.489.489,0,1,0,.977,0v-1.64A2.505,2.505,0,0,0,229.06,225h-7.972A2.5,2.5,0,0,0,218.621,227.533Z" transform="translate(-218.621 -225)" fill="#4b4f5b" stroke="#4b4f5b" stroke-width="1"/><path d="M248.06,242.626a.472.472,0,0,0,.691,0l3.333-3.506a.529.529,0,0,0,0-.723l-3.333-3.507a.468.468,0,0,0-.687,0,.529.529,0,0,0,0,.723l2.5,2.633h-9.132a.515.515,0,0,0,0,1.028h9.128l-2.5,2.633A.523.523,0,0,0,248.06,242.626Z" transform="translate(-232.227 -231.165)" fill="#00c0ff" stroke="#00c0ff" stroke-width="1"/></g></svg>