<svg xmlns="http://www.w3.org/2000/svg" xmlns:xlink="http://www.w3.org/1999/xlink" width="48" height="58" viewBox="0 0 48 58"><defs><clipPath id="a"><path d="M200,286H176a12.035,12.035,0,0,0-12,12h0v24a12.035,12.035,0,0,0,12,12h24l12,10V298A12.035,12.035,0,0,0,200,286Z"/></clipPath></defs><g transform="translate(-164 -196)"><g transform="translate(0 -90)" clip-path="url(#a)"><rect width="53" height="66" transform="translate(162 283)" fill="#00bfff"/></g><path d="M106.708,184.705a12.321,12.321,0,1,0,12.322,12.322A12.321,12.321,0,0,0,106.708,184.705Zm0,15.083a2.761,2.761,0,1,1,2.761-2.761A2.761,2.761,0,0,1,106.708,199.788Z" transform="translate(79.709 22.691)" fill="#fff"/></g></svg>