<svg xmlns="http://www.w3.org/2000/svg" width="12.304" height="21.211" viewBox="0 0 12.304 21.211"><g transform="translate(-7.129 -3.4)"><path d="M12.6,19.969A2.93,2.93,0,0,1,9.711,17h0a.543.543,0,0,1,1.074-.165.519.519,0,0,1,0,.165,1.819,1.819,0,0,0,3.638,0,.543.543,0,0,1,1.074-.165.519.519,0,0,1,0,.165A2.93,2.93,0,0,1,12.6,19.969Z" transform="translate(0.678 4.414)" fill="#00c0ff"/><path d="M12.651,20.247a3.158,3.158,0,0,1-3.12-3.2h0a.771.771,0,0,1,1.528-.2.735.735,0,0,1,0,.2,1.592,1.592,0,0,0,3.183,0,.771.771,0,0,1,1.528-.2.735.735,0,0,1,0,.2,3.158,3.158,0,0,1-3.12,3.2Zm-2.362-3.512a.316.316,0,0,0-.3.316,2.665,2.665,0,0,0,5.331,0,.316.316,0,0,0-.3-.316.3.3,0,0,0-.3.3v.013a2.059,2.059,0,1,1-4.118,0,.3.3,0,0,0-.291-.316Z" transform="translate(0.63 4.364)" fill="#00c0ff"/><path d="M18.615,20.161H7.853a.544.544,0,0,1-.543-.543h0V12.493A6,6,0,0,1,13.234,6.43a6,6,0,0,1,5.924,6.063v7.124a.544.544,0,0,1-.543.543ZM8.384,19.074h9.7V12.493a4.851,4.851,0,0,0-9.7,0Z" transform="translate(0.047 0.797)" fill="#374750"/><path d="M18.663,20.453H7.9a.77.77,0,0,1-.771-.771V12.546A6.227,6.227,0,0,1,13.268,6.23h.014a6.227,6.227,0,0,1,6.152,6.3V19.67a.77.77,0,0,1-.758.783ZM13.282,6.71A5.773,5.773,0,0,0,7.6,12.546V19.67a.3.3,0,0,0,.291.316H18.663a.3.3,0,0,0,.3-.3V12.546A5.773,5.773,0,0,0,13.282,6.71Zm4.851,12.632h-9.7a.227.227,0,0,1-.2-.215V12.546a5.053,5.053,0,0,1,10.105,0v6.581a.226.226,0,0,1-.2.227Zm-9.474-.467H17.9V12.558a4.623,4.623,0,1,0-9.246,0v6.318Z" transform="translate(0 0.745)" fill="#374750"/><path d="M11.111,7.784a.581.581,0,0,1-.531-.619V5.649A1.945,1.945,0,0,1,12.374,3.59a1.945,1.945,0,0,1,1.768,2.059V7.013a.543.543,0,1,1-1.061.232.554.554,0,0,1,0-.232V5.649a.72.72,0,0,0-1.415-.269.741.741,0,0,0,0,.269V7.165a.58.58,0,0,1-.542.618Z" transform="translate(0.907 0.05)" fill="#374750"/><path d="M11.164,8.086a.834.834,0,0,1-.783-.872V5.7a2.185,2.185,0,0,1,2.046-2.3,2.185,2.185,0,0,1,2.021,2.3V7.063a.783.783,0,0,1-1.566,0h0V5.7a.518.518,0,0,0-.455-.568.53.53,0,0,0-.455.568V7.215a.834.834,0,0,1-.795.872Zm1.263-4.194A1.68,1.68,0,0,0,10.9,5.7V7.215c0,.2.139.379.291.379s.291-.177.291-.379V5.7a.947.947,0,1,1,1.895,0V7.063a.3.3,0,1,0,.581.173.31.31,0,0,0,0-.173V5.7A1.68,1.68,0,0,0,12.427,3.893Z" transform="translate(0.855)" fill="#374750"/></g></svg>