<svg xmlns="http://www.w3.org/2000/svg" width="12.05" height="21.409" viewBox="0 0 12.05 21.409"><g transform="translate(-27.204 -237.525)"><path d="M7.2,9.193H4.353a1.872,1.872,0,0,1,0-3.743h5a1.241,1.241,0,0,0,0-2.482H7.011V1.241a1.241,1.241,0,0,0-2.482,0V2.968H4.353a4.353,4.353,0,1,0,0,8.707H7.2a1.872,1.872,0,0,1,0,3.743H2.1a1.241,1.241,0,1,0,0,2.482h2.44v1.768a1.241,1.241,0,1,0,2.482,0V17.9h.238A4.354,4.354,0,0,0,7.2,9.193Z" transform="translate(27.454 237.775)" fill="#374750" stroke="#fff" stroke-width="0.5"/><path d="M2.828.3A1.011,1.011,0,0,0,1.4.3L0,1.694l1.43,1.43,1.4-1.4A1.011,1.011,0,0,0,2.828.3Z" transform="translate(31.02 239.819) rotate(-45)" fill="#00c0ff"/><path d="M2.85,2.846a1.011,1.011,0,0,1-1.43,0L0,1.43,1.43,0,2.85,1.416A1.011,1.011,0,0,1,2.85,2.846Z" transform="translate(33.229 254.411) rotate(45)" fill="#00c0ff"/></g></svg>