<svg xmlns="http://www.w3.org/2000/svg" width="27.753" height="18.501" viewBox="0 0 27.753 18.501"><g transform="translate(-2497.85 -2494.339)"><g transform="translate(2507.103 2494.34)" fill="none" stroke-linecap="round"><path d="M9.251,0A9.251,9.251,0,1,1,0,9.251,9.251,9.251,0,0,1,9.251,0Z" stroke="none"/><path d="M 9.250514984130859 1.399995803833008 C 4.921725273132324 1.399995803833008 1.399995803833008 4.921725273132324 1.399995803833008 9.250514984130859 C 1.399995803833008 13.57930564880371 4.921725273132324 17.10102462768555 9.250514984130859 17.10102462768555 C 13.57930564880371 17.10102462768555 17.10102462768555 13.57930564880371 17.10102462768555 9.250514984130859 C 17.10102462768555 4.921725273132324 13.57930564880371 1.399995803833008 9.250514984130859 1.399995803833008 M 9.250514984130859 -5.7220458984375e-06 C 14.35943508148193 -5.7220458984375e-06 18.50102424621582 4.141594886779785 18.50102424621582 9.250514984130859 C 18.50102424621582 14.35943508148193 14.35943508148193 18.50102424621582 9.250514984130859 18.50102424621582 C 4.141594886779785 18.50102424621582 -5.7220458984375e-06 14.35943508148193 -5.7220458984375e-06 9.250514984130859 C -5.7220458984375e-06 4.141594886779785 4.141594886779785 -5.7220458984375e-06 9.250514984130859 -5.7220458984375e-06 Z" stroke="none" fill="#374750"/></g><rect width="3.021" height="1.1" rx="0.55" transform="translate(2504.674 2494.518)" stroke-width="0.3" stroke="#00c0ff" stroke-linecap="round" stroke-linejoin="round" fill="#00c0ff"/><rect width="7.475" height="1.1" rx="0.55" transform="translate(2508.48 2494.518)" stroke-width="0.3" stroke="#374750" stroke-linecap="round" stroke-linejoin="round" fill="#374750"/><rect width="3.021" height="1.1" rx="0.55" transform="translate(2501.243 2498.877)" stroke-width="0.3" stroke="#00c0ff" stroke-linecap="round" stroke-linejoin="round" fill="#00c0ff"/><rect width="4.328" height="1.1" rx="0.55" transform="translate(2504.943 2498.878)" stroke-width="0.3" stroke="#374750" stroke-linecap="round" stroke-linejoin="round" fill="#374750"/><rect width="3.021" height="1.1" rx="0.55" transform="translate(2498 2503.597)" stroke-width="0.3" stroke="#00c0ff" stroke-linecap="round" stroke-linejoin="round" fill="#00c0ff"/><rect width="5.366" height="1.1" rx="0.55" transform="translate(2502.729 2503.597)" stroke-width="0.3" stroke="#374750" stroke-linecap="round" stroke-linejoin="round" fill="#374750"/><rect width="3.021" height="1.1" rx="0.55" transform="translate(2500.332 2507.052)" stroke-width="0.3" stroke="#00c0ff" stroke-linecap="round" stroke-linejoin="round" fill="#00c0ff"/><rect width="5.096" height="1.1" rx="0.55" transform="translate(2504.156 2507.052)" stroke-width="0.3" stroke="#374750" stroke-linecap="round" stroke-linejoin="round" fill="#374750"/><rect width="3.021" height="1.1" rx="0.55" transform="translate(2500.939 2509.434)" stroke-width="0.3" stroke="#00c0ff" stroke-linecap="round" stroke-linejoin="round" fill="#00c0ff"/><rect width="6.103" height="1.1" rx="0.55" transform="translate(2505.098 2509.434)" stroke-width="0.3" stroke="#374750" stroke-linecap="round" stroke-linejoin="round" fill="#374750"/><rect width="3.021" height="1.1" rx="0.55" transform="translate(2503.575 2511.583)" stroke-width="0.3" stroke="#00c0ff" stroke-linecap="round" stroke-linejoin="round" fill="#00c0ff"/><rect width="9.508" height="1.1" rx="0.55" transform="translate(2507.397 2511.583)" stroke-width="0.3" stroke="#374750" stroke-linecap="round" stroke-linejoin="round" fill="#374750"/><path d="M3.187,4.07H1.928a.829.829,0,1,1,0-1.657H4.144a.549.549,0,0,0,0-1.1H3.1V.549a.549.549,0,0,0-1.1,0v.765H1.928a1.928,1.928,0,1,0,0,3.855H3.187a.829.829,0,1,1,0,1.657H.929a.549.549,0,1,0,0,1.1H2.01v.783a.549.549,0,1,0,1.1,0V7.926h.105A1.928,1.928,0,0,0,3.187,4.07Z" transform="translate(2513.603 2498.84)" fill="#374750" stroke="#374750" stroke-width="0.3"/></g></svg>