<svg xmlns="http://www.w3.org/2000/svg" width="18.425" height="20.8" viewBox="0 0 18.425 20.8"><g transform="translate(0.4 0.4)"><path d="M2851.464,1188.555h-11.118a2.144,2.144,0,0,0-2.141,2.141v15.718a2.144,2.144,0,0,0,2.141,2.141h13.342a2.144,2.144,0,0,0,2.141-2.141v-13.493Zm.019,1.239,3.086,3.071h-1.77a1.318,1.318,0,0,1-1.316-1.316Zm2.206,17.936h-13.342a1.318,1.318,0,0,1-1.316-1.316V1190.7a1.318,1.318,0,0,1,1.316-1.316h10.312v2.168a2.144,2.144,0,0,0,2.141,2.141H2855v12.724A1.318,1.318,0,0,1,2853.688,1207.73Z" transform="translate(-2838.205 -1188.555)" fill="#374750" stroke="#374750" stroke-width="0.8"/><path d="M2959.548,1465.657H2951.2a.433.433,0,0,1,0-.866h8.346a.433.433,0,0,1,0,.866Z" transform="translate(-2946.563 -1453.961)" fill="#00c0ff" stroke="#00c0ff" stroke-width="0.5"/><path d="M2957.487,1409.681H2951.2a.433.433,0,1,1,0-.866h6.285a.433.433,0,1,1,0,.866Z" transform="translate(-2946.484 -1400.18)" fill="#00c0ff" stroke="#00c0ff" stroke-width="0.5"/><g transform="translate(4.285 13.025)"><path d="M2957.487,1521.636H2951.2a.433.433,0,0,1,0-.866h6.285a.433.433,0,0,1,0,.866Z" transform="translate(-2950.769 -1520.77)" fill="#00c0ff" stroke="#00c0ff" stroke-width="0.5"/></g></g></svg>